<?xml version="1.0" encoding="utf-8"?>
<!-- Generator: Adobe Illustrator 27.0.0, SVG Export Plug-In . SVG Version: 6.00 Build 0)  -->
<svg version="1.1" id="Layer_1" xmlns="http://www.w3.org/2000/svg" xmlns:xlink="http://www.w3.org/1999/xlink" x="0px" y="0px"
	 viewBox="0 0 1000 1000" style="enable-background:new 0 0 1000 1000;" xml:space="preserve">
<style type="text/css">
	.st0{clip-path:url(#SVGID_00000031171480771777904470000012242991468053202572_);fill:#F58020;}
	.st1{clip-path:url(#SVGID_00000031171480771777904470000012242991468053202572_);fill:#D36727;}
	.st2{clip-path:url(#SVGID_00000031171480771777904470000012242991468053202572_);fill:#EDEBF6;}
	.st3{clip-path:url(#SVGID_00000031171480771777904470000012242991468053202572_);}
	.st4{fill:#25242A;}
	.st5{fill:#56535C;}
	.st6{fill:#7B7A81;}
	.st7{clip-path:url(#SVGID_00000170985636971251044200000000684347581156702885_);}
	.st8{fill:#119A48;}
	.st9{fill:#066B38;}
	.st10{fill:#31AA49;}
</style>
<g>
	<g>
		<defs>
			<circle id="SVGID_1_" cx="500" cy="502.07" r="409.26"/>
		</defs>
		<clipPath id="SVGID_00000176744898220705761960000014791735220593728145_">
			<use xlink:href="#SVGID_1_"  style="overflow:visible;"/>
		</clipPath>
		
			<circle style="clip-path:url(#SVGID_00000176744898220705761960000014791735220593728145_);fill:#F58020;" cx="500" cy="502.07" r="409.26"/>
		<path style="clip-path:url(#SVGID_00000176744898220705761960000014791735220593728145_);fill:#D36727;" d="M34.37,556.26
			c135.55-1.02,489.62,216.32,518.55,544.01c12.05-3.01,440.11-220.76,440.11-220.76c-82.8-284.94-172.2-512.21-571.76-577.38
			C421.28,302.14,223.74,392.17,34.37,556.26z"/>
		<path style="clip-path:url(#SVGID_00000176744898220705761960000014791735220593728145_);fill:#EDEBF6;" d="M161.74,383.71
			c131.77,31.81,422.74,328.35,371.54,653.3c12.42,0,480.44-107.73,480.44-107.73c-11.41-296.51-43.17-538.65-415.1-698.55
			C598.63,230.73,385.18,270.3,161.74,383.71z"/>
		<g style="clip-path:url(#SVGID_00000176744898220705761960000014791735220593728145_);">
			<g>
				<path class="st4" d="M686.75,790.53H575.67v-66.49c0-0.75,0.61-1.36,1.36-1.36h108.37c0.75,0,1.36,0.61,1.36,1.36V790.53z"/>
				<path class="st5" d="M759.06,927.33h-255.7c-1.86,0-3.36-1.5-3.36-3.36V776.29c0-6.82,5.53-12.34,12.34-12.34h237.74
					c6.82,0,12.34,5.53,12.34,12.34v147.68C762.42,925.82,760.92,927.33,759.06,927.33z"/>
				<path class="st6" d="M669.27,840.64H546.28c-2.08,0-3.76-1.68-3.76-3.76v-42.59c0-2.08,1.68-3.76,3.76-3.76h122.99
					c2.08,0,3.76,1.68,3.76,3.76v42.59C673.03,838.96,671.35,840.64,669.27,840.64z"/>
			</g>
		</g>
	</g>
	<g>
		<defs>
			<rect id="SVGID_00000152260890280191670650000014218411527386036920_" x="528.48" y="-36.67" width="353.69" height="759.06"/>
		</defs>
		<clipPath id="SVGID_00000168797266301086466210000007474247401255885201_">
			<use xlink:href="#SVGID_00000152260890280191670650000014218411527386036920_"  style="overflow:visible;"/>
		</clipPath>
		<g style="clip-path:url(#SVGID_00000168797266301086466210000007474247401255885201_);">
			<path class="st8" d="M871.49,115.88c-100.46,179.3-182.24,363.41-228.5,564.6c-11.78-27.69-47.6-84.2-41.16-128.27
				c2.05-14.11,14.69-56.61,34.28-107.84c17.78-46.8,41.54-100.66,65.73-147.5c30.17-58.89,60.72-106.53,75.18-120.32
				C815.69,139.1,871.51,115.69,871.49,115.88z"/>
			<path class="st8" d="M639.45,683.59c0-19.04,79.53-9.14,93.88-32.63c-3.13,36.28-89.06,28.45-94.78,45.16L639.45,683.59z"/>
			<path class="st8" d="M762.07,603c-25.8,47.69-116,45.81-123.52,85.27c38.44-203.81,117.27-398.17,232.94-572.39
				c-0.2,0.07-14.17,72.28-3.32,123.04c0.3,1.39-0.2,3.02-0.41,4.74c0,0,0.02,0.05,0.01,0.12c-2.18,17.79-12.54,50.16-24.85,88.73
				c-0.01,0.03-0.01,0.03-0.03,0.06c-13.73,42.61-29.53,92.87-42.56,138.95c-0.73,2.47-1.42,4.96-2.13,7.44
				c-4.62,16.38-8.96,32.14-12.92,46.63C774.92,563.6,767.14,593.07,762.07,603z"/>
			<path class="st9" d="M706.92,457.39c-14.39,41.21-27.56,82.86-39.48,124.86c11.39-55.56-45.71-94.14-31.33-137.87
				c17.78-46.8,41.54-100.66,65.73-147.5C681.75,340.9,724.32,407.07,706.92,457.39z"/>
			<path class="st9" d="M842.93,332.51c-0.02,0.03-0.01,0.03-0.03,0.06c-26.17,54.75-103.21,43.24-121.29,69.48
				c12.86-32.33,26.81-64.25,41.84-95.7c16.47-26.79,85.32-9.3,104.32-62.69c0,0,0.01,0.04,0,0.12
				C865.6,261.58,855.25,293.95,842.93,332.51z"/>
			<path class="st9" d="M785.29,525.6c-35.19,35.01-112.17,45.34-124.17,69.19c1.45-8.25,2.96-16.5,4.54-24.73
				c0.38-1.98,0.76-3.96,1.15-5.94c0.28-0.73,0.62-1.45,1.07-2.17c15.19-26.82,112.74-37.33,130.33-82.98
				C793.59,495.34,789.25,511.1,785.29,525.6z"/>
			<path class="st10" d="M799.53,235.54c-8.68,7.02-90.49,147.87-133.55,304.05c-48.63,154.38-58.5,324.09-51.81,347.19
				c4.49-27.96,18.74-192.98,65.71-344.45C721.59,389.24,796.01,249.7,799.53,235.54z"/>
		</g>
	</g>
</g>
</svg>
